<svg aria-hidden="true" style="position: absolute; width: 0; height: 0; overflow: hidden;" version="1.1" xmlns="http://www.w3.org/2000/svg" xmlns:xlink="http://www.w3.org/1999/xlink">
<defs>
<symbol id="icon-heart" viewBox="0 0 32 32">
<path stroke-linejoin="round" stroke-linecap="round" stroke-miterlimit="4" stroke-width="2.6667" d="M27.787 6.147c-0.681-0.681-1.49-1.222-2.38-1.591s-1.844-0.559-2.807-0.559c-0.963 0-1.917 0.19-2.807 0.559s-1.698 0.909-2.379 1.591l-1.413 1.413-1.413-1.413c-1.376-1.376-3.241-2.148-5.187-2.148s-3.811 0.773-5.187 2.148c-1.376 1.376-2.148 3.241-2.148 5.187s0.773 3.811 2.148 5.187l11.787 11.787 11.787-11.787c0.681-0.681 1.222-1.49 1.591-2.38s0.558-1.844 0.558-2.807-0.19-1.917-0.558-2.807c-0.369-0.89-0.909-1.699-1.591-2.38z"></path>
</symbol>
<symbol id="icon-chevron-down" viewBox="0 0 32 32">
<path stroke-linejoin="round" stroke-linecap="round" stroke-miterlimit="4" stroke-width="3.2" d="M8 12l8 8 8-8"></path>
</symbol>
<symbol id="icon-close" viewBox="0 0 32 32">
<path stroke-linejoin="round" stroke-linecap="round" stroke-miterlimit="4" stroke-width="2.4" d="M24 8l-16 16"></path>
<path stroke-linejoin="round" stroke-linecap="round" stroke-miterlimit="4" stroke-width="2.4" d="M8 8l16 16"></path>
</symbol>
<symbol id="icon-dollar" viewBox="0 0 21 32">
<path d="M8.792 31.59v-3.913h3.016v3.913h-3.016zM8.792 4.399v-3.93h3.016v3.93h-3.016zM10.537 28.744c-1.649 0-3.134-0.294-4.456-0.881-1.31-0.599-2.389-1.44-3.236-2.524-0.847-1.096-1.4-2.383-1.66-3.863l2.965-0.491c0.361 1.502 1.124 2.694 2.287 3.575 1.175 0.881 2.586 1.321 4.235 1.321 1.66 0 3.004-0.401 4.032-1.203s1.542-1.835 1.542-3.1c0-0.926-0.277-1.672-0.83-2.236-0.542-0.565-1.457-1.045-2.744-1.44l-5.574-1.728c-3.332-1.039-4.998-3.027-4.998-5.963 0-1.378 0.333-2.581 1-3.608 0.678-1.039 1.621-1.841 2.829-2.406 1.22-0.576 2.637-0.858 4.252-0.847 1.57 0.011 2.97 0.305 4.201 0.881 1.231 0.565 2.248 1.378 3.049 2.44 0.813 1.062 1.361 2.332 1.643 3.812l-3.049 0.559c-0.158-0.96-0.508-1.801-1.050-2.524-0.531-0.723-1.208-1.282-2.033-1.677-0.824-0.407-1.751-0.616-2.778-0.627-0.96-0.011-1.824 0.147-2.592 0.474-0.757 0.328-1.355 0.785-1.796 1.372s-0.661 1.259-0.661 2.016c0 0.824 0.305 1.525 0.915 2.101 0.621 0.565 1.592 1.050 2.914 1.457l4.574 1.355c2.010 0.599 3.462 1.406 4.354 2.423 0.892 1.005 1.338 2.349 1.338 4.032 0 1.457-0.361 2.733-1.084 3.829-0.712 1.096-1.722 1.948-3.032 2.558-1.299 0.61-2.818 0.915-4.557 0.915z"></path>
</symbol>
</defs>
</svg>
